<?xml version="1.0" encoding="utf-8"?>
<!-- Generator: Adobe Illustrator 16.0.3, SVG Export Plug-In . SVG Version: 6.00 Build 0)  -->
<!DOCTYPE svg PUBLIC "-//W3C//DTD SVG 1.1//EN" "http://www.w3.org/Graphics/SVG/1.1/DTD/svg11.dtd">
<svg version="1.1" id="Layer_1" xmlns="http://www.w3.org/2000/svg" xmlns:xlink="http://www.w3.org/1999/xlink" x="0px" y="0px"
	 width="570.649px" height="302.364px" viewBox="0 0 570.649 302.364" enable-background="new 0 0 570.649 302.364"
	 xml:space="preserve">
<g>
	<defs>
		<rect id="SVGID_1_" x="27.477" y="16.2" width="516.206" height="271.878"/>
	</defs>
	<clipPath id="SVGID_2_">
		<use xlink:href="#SVGID_1_"  overflow="visible"/>
	</clipPath>
	<defs>
		<filter id="Adobe_OpacityMaskFilter" filterUnits="userSpaceOnUse" x="44.065" y="22.369" width="488.155" height="248.618">
			<feColorMatrix  type="matrix" values="1 0 0 0 0  0 1 0 0 0  0 0 1 0 0  0 0 0 1 0"/>
		</filter>
	</defs>
	<mask maskUnits="userSpaceOnUse" x="44.065" y="22.369" width="488.155" height="248.618" id="SVGID_3_">
		<g filter="url(#Adobe_OpacityMaskFilter)">
			<g>
				<defs>
					<rect id="SVGID_4_" x="44.065" y="22.369" width="488.155" height="248.618"/>
				</defs>
				<clipPath id="SVGID_5_" clip-path="url(#SVGID_2_)">
					<use xlink:href="#SVGID_4_"  overflow="visible"/>
				</clipPath>
				<rect x="41.012" y="19.313" clip-path="url(#SVGID_5_)" width="616.306" height="254.728"/>
				<g enable-background="new    ">
					<g>
						<defs>
							<rect id="SVGID_6_" x="41.01" y="19.313" width="616.308" height="254.728"/>
						</defs>
						<clipPath id="SVGID_7_" clip-path="url(#SVGID_5_)">
							<use xlink:href="#SVGID_6_"  overflow="visible"/>
						</clipPath>
						<path clip-path="url(#SVGID_7_)" fill="#FFFFFF" d="M605.746,82.105c-182.13,3.974-363.863,18.567-544.32,43.485
							c-9.692,1.338-5.567,16.056,4.058,14.729c179.087-24.729,359.523-38.996,540.262-42.939
							C615.562,97.166,615.599,81.895,605.746,82.105"/>
						<path clip-path="url(#SVGID_7_)" fill="#FFFFFF" d="M393.578,47.816c-44.751,26.737-89.516,53.477-134.272,80.218
							c-7.398,4.417-2.561,16.236,5.882,13.958c55-14.838,109.996-29.677,164.995-44.519c8.048-2.169,6.764-15.854-2.034-15
							C304.511,94.447,180.784,105.47,56.973,115.53c-9.654,0.786-9.966,15.398,0,15.27c127.214-1.586,254.427-3.176,381.643-4.763
							c-0.677-4.996-1.357-9.996-2.03-15c-109.973,16.778-220.916,25.44-331.767,34.011v15.27
							c120.576-9.74,241.158-19.488,361.736-29.232c9.708-0.786,9.933-14.88,0-15.271c-128.3-5.049-256.276,6.522-383.896,18.331
							c-9.609,0.887-9.996,15.41,0,15.271c44.038-0.621,88.073-1.245,132.11-1.861c9.819-0.139,9.848-15.414,0-15.274
							c-44.038,0.62-88.073,1.241-132.11,1.865v15.271c127.62-11.805,255.596-23.376,383.896-18.331v-15.271
							c-120.578,9.744-241.16,19.488-361.736,29.233c-9.722,0.786-9.826,16.034,0,15.27
							c112.223-8.676,224.493-17.567,335.827-34.552c8.608-1.316,6.398-15.105-2.03-15.004
							c-127.215,1.591-254.429,3.177-381.643,4.768v15.27c123.812-10.06,247.539-21.075,371.177-33.052c-0.676-5-1.354-10-2.026-15
							c-55,14.834-109.998,29.677-164.993,44.514c1.96,4.651,3.92,9.309,5.881,13.959c44.76-26.74,89.519-53.481,134.273-80.222
							C409.717,55.966,402.047,42.756,393.578,47.816"/>
						<path clip-path="url(#SVGID_7_)" fill="#FFFFFF" d="M495.754,126.177c-23.177,6.846-47.428,8.011-71.409,9.793
							c-24.079,1.786-48.184,3.199-72.301,4.338c-49.259,2.327-98.562,3.493-147.864,4.297
							c-97.642,1.602-195.322,1.88-292.876,6.737c-9.763,0.485-9.872,15.579,0,15.271l561.063-17.414v-15.271
							c-96.425,10.324-193.225,16.493-290.179,18.493c1.283,4.745,2.569,9.481,3.855,14.229c5.004-3.165,9.615-4.748,15.476-5.556
							c9.692-1.338,5.569-16.056-4.059-14.729c-7.243,1.004-12.972,3.211-19.128,7.102c-6.203,3.917-3.974,14.387,3.855,14.226
							c96.954-1.996,193.754-8.165,290.179-18.492c9.545-1.022,10.03-15.583,0-15.271l-561.063,17.414v15.271
							c99.567-4.951,199.262-5.14,298.917-6.834c49.297-0.839,98.6-2.068,147.85-4.489c46.297-2.278,96.98-1.166,141.744-14.387
							C509.22,138.124,505.216,123.379,495.754,126.177"/>
						<path clip-path="url(#SVGID_7_)" fill="#FFFFFF" d="M369.658,68.763c-4.625,4.523-9.249,9.042-13.873,13.564
							c-5.718,5.59,0.244,14.267,7.428,12.763c6.936-1.451,12.673-3.801,18.666-7.545l-10.444-10.444
							c-1.503,2.061-2.999,4.125-4.5,6.188c-3.184,4.384,1.026,12.222,6.597,11.489c26.135-3.443,49.045-17.113,74.891-21.583
							c-2.478-4.256-4.95-8.508-7.428-12.763c-8.922,10.485-13.542,21.458-14.986,35.124c-1.034,9.763,14.245,9.688,15.275,0
							c1-9.481,4.372-17.109,10.511-24.323c5.098-6,0.18-14.083-7.433-12.767c-24.455,4.233-46.19,17.79-70.831,21.042
							c2.196,3.831,4.392,7.658,6.595,11.488c1.496-2.06,2.992-4.124,4.489-6.188c4.578-6.308-4.264-14.312-10.444-10.447
							c-4.842,3.026-9.428,4.834-15.018,6.003c2.478,4.252,4.955,8.508,7.428,12.763c4.625-4.522,9.248-9.042,13.876-13.567
							C387.496,72.681,376.698,61.884,369.658,68.763"/>
						<path clip-path="url(#SVGID_7_)" fill="#FFFFFF" d="M496.998,61.974c-2.007,21.62,2.801,47.627,18.587,63.74
							c14.909,15.233,38.293,18.011,54.864,3.774c15.579-13.387,20.887-37.901,15.443-57.522
							c-6.549-23.609-31.278-30.045-51.928-21.026c-27.732,12.109-72.132,71.643-32.44,95.293
							c21.598,12.868,42.812-7.688,52.308-25.666c10.609-20.09,9.365-43.688-7.063-60.161c-7.215-7.229-18.951-8.643-27.76-3.583
							c-24.354,13.992-43.003,44.924-34.687,73.62c10.271,35.497,58.653,28.32,65.563-5.124c6.8-32.902-25.879-54.815-54.391-57.827
							c-29.879-3.157-67.443,9.448-84.308,35.763c-19.413,30.301,1.99,63.53,36.44,63.177c27.523-0.286,62.673-16.684,69.222-45.977
							c3.443-15.398-3.346-31.455-17.06-39.436c-14.451-8.41-32.721-6.545-48.413-3.567c-29.669,5.639-64.18,24.221-77.564,52.575
							c-7.759,16.451-6.864,36.575,5.117,50.793c10.733,12.729,27.383,17.778,43.191,20.875
							c39.241,7.688,77.616,2.361,114.094-13.443c15.977-6.925,13.921-32.011,0-39.563c-31.004-16.823-71.68-11.226-94.375,16.902
							c-7.362,9.12-10.09,23.568,0,32.395c10.778,9.429,21.391,13.726,35.62,15.079c29.334,2.797,29.143-43.037,0-45.816
							c-1.286,0.038-2.361-0.515-3.222-1.658v32.395c9.673-11.981,24.624-17.455,38.853-9.733v-39.563
							c-26.071,11.297-56.334,14.124-83.999,7.714c-2.045-0.474-14.605-2.357-15.24-4.977c-0.459-1.884,5.913-7.974,7.083-9.128
							c9.534-9.436,22.466-15.662,35.312-19.004c4.229-1.101,14.94-0.451,18.176-2.5c3.008-1.898,4.917,4.85-0.286-5.056
							c-4.274-8.127-1.534-3.685-6.331-1.771c-4.951,1.974-8.676,4.996-14.15,6.041c-0.646,0.121-10.383,0.079-10.602,0.489
							c-0.534,0.997,6.88,7.297,6.729,7.316c3.114-0.365,10.749-8.455,14.218-10.068c5.388-2.503,11.414-4.162,17.312-4.804
							c9.184-1.007,24.191,0.184,23.169,9.334c1.045-3.857,2.082-7.707,3.132-11.564l5.627-2.131
							c3.854,1.042,7.708,2.083,11.564,3.127c1.195,1.884,2.395,3.771,3.594,5.658c0.011-0.74,0.023-1.485,0.03-2.226
							c1.425-1.793,1.625-5.985,2.797-8.188c2.579-4.864,6.192-7.856,10.91-10.563c-9.256-1.195-18.504-2.391-27.763-3.583
							c1.139,1.139,1.139,2.951-0.101,4.639c-1.042,1.414-6.103,8.308-4.061,7.703h12.182c6.149,14.376,9.913,17.925,11.296,10.647
							c0.38-1.564,0.854-3.091,1.425-4.59c1.436-3.365,3.643-6.79,5.985-9.609c2.098-2.527,5.338-4.293,7.361-6.681
							c1.605-0.996,3.248-1.936,4.925-2.812c-8.068-10.121-11.955-12.575-11.654-7.369c0.774-1.237-0.856,9.365-0.685,9.496
							c1.29-0.124,2.572-0.289,3.854-0.496c3.455,0.5,4.041-0.406,1.74-2.718c0.535-3.207-3.691-10.226-4.15-13.722
							c-0.67-5.064-0.144-10.278,0.327-15.319C545.536,32.628,499.698,32.813,496.998,61.974"/>
						<path clip-path="url(#SVGID_7_)" fill="#FFFFFF" d="M549.923,162.954c-19.842,11.719-49.721,9.937-72.075,11.41
							c-27.683,1.824-55.413,2.432-83.149,2.075c-29.542-0.379-29.444,44.91,0,45.819c45.853,1.41,91.706,2.824,137.563,4.233
							c18.638,0.576,31.845-26.341,16.199-39.105c-26.241-21.413-54.087-9.782-76.019,11.488
							c-21.203,20.564,11.211,52.944,32.398,32.395c2.925-2.834,6.294-5.342,9.174-8.125c3.255-3.146,6.086-0.067,2.052-3.36
							c5.398-13.038,10.796-26.075,16.195-39.109c-45.857-1.41-91.71-2.823-137.563-4.237v45.819
							c31.702,0.406,63.39-0.474,95.007-2.928c27.721-2.151,58.763-2.301,83.342-16.813
							C598.419,187.537,575.397,147.913,549.923,162.954"/>
						<path clip-path="url(#SVGID_7_)" fill="#FFFFFF" d="M471.92,184.173c-4.621,20.263-17.94,35.15-31.733,50.041
							c-16.196,17.489-32.895,34.507-49.699,51.409c10.796,10.797,21.597,21.598,32.398,32.395c1.698-2.045,3.398-4.09,5.093-6.135
							c18.707-22.526-13.534-55.113-32.395-32.399l-5.097,6.139c-18.519,22.304,11.221,53.695,32.398,32.395
							c19.21-19.319,38.48-38.695,56.65-59.007c16.451-18.391,30.984-38.195,36.567-62.661
							C522.645,167.646,478.487,155.391,471.92,184.173"/>
						<path clip-path="url(#SVGID_7_)" fill="#FFFFFF" d="M512.736,127.492c-48.594,82.677-99.12,164.203-151.538,244.51
							c-16.161,24.763,23.493,47.751,39.56,23.127c52.421-80.312,102.944-161.833,151.538-244.513
							C567.269,125.139,527.683,102.06,512.736,127.492"/>
						<path clip-path="url(#SVGID_7_)" fill="#FFFFFF" d="M465.213,181.751c-187.841,5.004-375.68,10.007-563.517,15.015
							c-29.429,0.783-29.544,46.602,0,45.816c187.837-5.007,375.676-10.007,563.517-15.015
							C494.638,226.782,494.758,180.962,465.213,181.751"/>
						<path clip-path="url(#SVGID_7_)" fill="#FFFFFF" d="M532.435,149.067H-49.444c-29.481,0-29.53,45.815,0,45.815h581.878
							C561.916,194.883,561.968,149.067,532.435,149.067"/>
						<path clip-path="url(#SVGID_7_)" fill="#FFFFFF" d="M503.42,193.357h-607.843c-29.483,0-29.532,45.815,0,45.815H503.42
							C532.897,239.172,532.95,193.357,503.42,193.357"/>
						<path clip-path="url(#SVGID_7_)" fill="#FFFFFF" d="M399.563,124.632H-29.589c-29.481,0-29.53,45.815,0,45.815h429.152
							C429.044,170.447,429.097,124.632,399.563,124.632"/>
						<path clip-path="url(#SVGID_7_)" fill="#FFFFFF" d="M419.42,98.669H-43.335c-29.48,0-29.53,45.816,0,45.816H419.42
							C448.901,144.485,448.95,98.669,419.42,98.669"/>
						<path clip-path="url(#SVGID_7_)" fill="#FFFFFF" d="M423.999,83.395H-69.297c-29.481,0-29.53,45.819,0,45.819h493.296
							C453.48,129.214,453.533,83.395,423.999,83.395"/>
						<path clip-path="url(#SVGID_7_)" fill="#FFFFFF" d="M401.059,26.049c-3.428,0.647-13.109-1.157-18.804-0.62
							c-9.65,0.914-18.248,4.613-24.85,11.898c-12.168,13.443-11.947,35.334-14.594,52.233c-1.91,12.214,3.117,24.646,15.996,28.184
							c10.879,2.989,26.259-3.707,28.184-16c1.06-6.775,2.121-13.545,3.18-20.316c0.481-3.075,0.921-6.166,1.447-9.233
							c0.109-0.665,1.948-7.507,1.737-7.898c-1.439,1.835-2.875,3.669-4.316,5.511c-4.672,0.902-5.62,1.278-2.838,1.127
							c2.052,0.527,4.767,0.192,6.955,0.357c6.97,0.52,13.12,0.252,20.083-1.063c12.165-2.301,19.086-16.951,16-28.18
							C425.736,29.301,413.262,23.745,401.059,26.049"/>
						<path clip-path="url(#SVGID_7_)" fill="#FFFFFF" d="M401.093,77.286H4.011c-29.481,0-29.532,45.82,0,45.82h397.082
							C430.57,123.105,430.624,77.286,401.093,77.286"/>
						<path clip-path="url(#SVGID_7_)" fill="#FFFFFF" d="M516.45,64.354c-52.474,52.402-104.947,104.797-157.42,157.191
							c-20.891,20.864,11.5,53.27,32.397,32.402C443.901,201.548,496.375,149.15,548.84,96.748
							C569.735,75.891,537.344,43.482,516.45,64.354"/>
						<path clip-path="url(#SVGID_7_)" fill="#FFFFFF" d="M520.025,86.083c-13.331,14-21.504,30.718-29.99,47.868
							c-9.259,18.703-18.465,37.436-27.323,56.334c-17.722,37.823-34.041,76.354-46.962,116.101
							c-9.135,28.105,35.098,40.147,44.18,12.177c11.711-36.022,26.286-70.868,42.346-105.146
							c7.643-16.327,15.561-32.526,23.542-48.692c7.714-15.631,14.436-33.462,26.602-46.248
							C572.753,97.128,540.404,64.673,520.025,86.083"/>
						<path clip-path="url(#SVGID_7_)" fill="#FFFFFF" d="M520.217,176.556H-37.651v45.82h11.117c29.479,0,29.528-45.82,0-45.82
							h-11.117c-29.481,0-29.53,45.82,0,45.82h557.868C549.698,222.375,549.75,176.556,520.217,176.556"/>
						<path clip-path="url(#SVGID_7_)" fill="#FFFFFF" d="M520.217,141.432H-41.807c-29.481,0-29.53,45.815,0,45.815h562.023
							C549.698,187.248,549.75,141.432,520.217,141.432"/>
					</g>
				</g>
			</g>
		</g>
	</mask>
	<g clip-path="url(#SVGID_2_)" mask="url(#SVGID_3_)">
		<g>
			<defs>
				<rect id="SVGID_8_" x="44.065" y="22.369" width="488.155" height="248.618"/>
			</defs>
			<clipPath id="SVGID_9_">
				<use xlink:href="#SVGID_8_"  overflow="visible"/>
			</clipPath>
			<g clip-path="url(#SVGID_9_)">
				<path fill="#B0CE35" d="M148.871,95.515l-47.109,115.611h-7.779L46.874,95.515h6.267l44.731,108.479l44.083-108.479H148.871z"/>
				<path fill="#B0CE35" d="M175.882,69.584h-6.051V49.703h6.051V69.584z M175.882,211.126h-6.051V95.515h6.051V211.126z"/>
				<path fill="#B0CE35" d="M300.785,95.515l-47.109,115.611h-7.779L198.788,95.515h6.267l44.731,108.479L293.87,95.515H300.785z"/>
				<path fill="#B0CE35" d="M327.796,69.584h-6.051V49.703h6.051V69.584z M327.796,211.126h-6.051V95.515h6.051V211.126z"/>
				<path fill="#B0CE35" d="M403.429,101.134h-29.821v109.992h-1.945h-2.377h-1.729V101.134h-18.8v-5.619h18.8
					c0-16.207,1.729-27.444,5.186-33.711c5.187-9.292,15.343-14.262,30.686-15.126v6.051c-13.182,1.08-21.609,5.186-25.715,12.75
					c-2.809,5.186-4.106,15.126-4.106,30.037h29.821V101.134z"/>
				<path fill="#B0CE35" d="M519.902,95.515l-69.366,162.071h-6.915l20.313-46.677l-45.38-115.395h6.699l42.354,107.183
					l45.164-107.183H519.902z"/>
			</g>
		</g>
	</g>
</g>
<rect x="27.477" y="16.2" fill="none" width="516.206" height="271.878"/>
<rect x="27.477" y="16.2" fill="none" width="516.206" height="271.878"/>
<g>
</g>
<g>
</g>
<g>
</g>
<g>
</g>
<g>
</g>
<g>
</g>
<g>
</g>
<g>
</g>
<g>
</g>
<g>
</g>
<g>
</g>
<g>
</g>
<g>
</g>
<g>
</g>
<g>
</g>
</svg>
